<?xml version="1.0" encoding="us-ascii" standalone="no"?><svg xmlns="http://www.w3.org/2000/svg" xmlns:xlink="http://www.w3.org/1999/xlink" contentStyleType="text/css" height="808px" preserveAspectRatio="none" style="width:725px;height:808px;background:#FFFFFF;" version="1.1" viewBox="0 0 725 808" width="725px" zoomAndPan="magnify"><defs/><g><line style="stroke:#C0C0C0;stroke-width:1.0;" x1="0" x2="0" y1="0" y2="16"/><line style="stroke:#C0C0C0;stroke-width:1.0;" x1="146" x2="146" y1="0" y2="16"/><text fill="#000000" font-family="sans-serif" font-size="12" font-weight="bold" lengthAdjust="spacing" textLength="32" x="57" y="11.6016">2026</text><line style="stroke:#C0C0C0;stroke-width:1.0;" x1="292" x2="292" y1="0" y2="16"/><text fill="#000000" font-family="sans-serif" font-size="12" font-weight="bold" lengthAdjust="spacing" textLength="32" x="203" y="11.6016">2027</text><line style="stroke:#C0C0C0;stroke-width:1.0;" x1="438.4" x2="438.4" y1="0" y2="16"/><text fill="#000000" font-family="sans-serif" font-size="12" font-weight="bold" lengthAdjust="spacing" textLength="32" x="349.2" y="11.6016">2028</text><text fill="#000000" font-family="sans-serif" font-size="12" font-weight="bold" lengthAdjust="spacing" textLength="32" x="495.2" y="11.6016">2029</text><line style="stroke:#C0C0C0;stroke-width:1.0;" x1="584" x2="584" y1="0" y2="16"/><line style="stroke:#C0C0C0;stroke-width:1.0;" x1="0" x2="0" y1="16" y2="30"/><line style="stroke:#C0C0C0;stroke-width:1.0;" x1="36" x2="36" y1="16" y2="30"/><text fill="#000000" font-family="sans-serif" font-size="10" lengthAdjust="spacing" textLength="14" x="11" y="25.668">Q1</text><line style="stroke:#C0C0C0;stroke-width:1.0;" x1="72.4" x2="72.4" y1="16" y2="30"/><text fill="#000000" font-family="sans-serif" font-size="10" lengthAdjust="spacing" textLength="14" x="47.2" y="25.668">Q2</text><line style="stroke:#C0C0C0;stroke-width:1.0;" x1="109.2" x2="109.2" y1="16" y2="30"/><text fill="#000000" font-family="sans-serif" font-size="10" lengthAdjust="spacing" textLength="14" x="83.8" y="25.668">Q3</text><line style="stroke:#C0C0C0;stroke-width:1.0;" x1="146" x2="146" y1="16" y2="30"/><text fill="#000000" font-family="sans-serif" font-size="10" lengthAdjust="spacing" textLength="14" x="120.6" y="25.668">Q4</text><line style="stroke:#C0C0C0;stroke-width:1.0;" x1="182" x2="182" y1="16" y2="30"/><text fill="#000000" font-family="sans-serif" font-size="10" lengthAdjust="spacing" textLength="14" x="157" y="25.668">Q1</text><line style="stroke:#C0C0C0;stroke-width:1.0;" x1="218.4" x2="218.4" y1="16" y2="30"/><text fill="#000000" font-family="sans-serif" font-size="10" lengthAdjust="spacing" textLength="14" x="193.2" y="25.668">Q2</text><line style="stroke:#C0C0C0;stroke-width:1.0;" x1="255.2" x2="255.2" y1="16" y2="30"/><text fill="#000000" font-family="sans-serif" font-size="10" lengthAdjust="spacing" textLength="14" x="229.8" y="25.668">Q3</text><line style="stroke:#C0C0C0;stroke-width:1.0;" x1="292" x2="292" y1="16" y2="30"/><text fill="#000000" font-family="sans-serif" font-size="10" lengthAdjust="spacing" textLength="14" x="266.6" y="25.668">Q4</text><line style="stroke:#C0C0C0;stroke-width:1.0;" x1="328.4" x2="328.4" y1="16" y2="30"/><text fill="#000000" font-family="sans-serif" font-size="10" lengthAdjust="spacing" textLength="14" x="303.2" y="25.668">Q1</text><line style="stroke:#C0C0C0;stroke-width:1.0;" x1="364.8" x2="364.8" y1="16" y2="30"/><text fill="#000000" font-family="sans-serif" font-size="10" lengthAdjust="spacing" textLength="14" x="339.6" y="25.668">Q2</text><line style="stroke:#C0C0C0;stroke-width:1.0;" x1="401.6" x2="401.6" y1="16" y2="30"/><text fill="#000000" font-family="sans-serif" font-size="10" lengthAdjust="spacing" textLength="14" x="376.2" y="25.668">Q3</text><line style="stroke:#C0C0C0;stroke-width:1.0;" x1="438.4" x2="438.4" y1="16" y2="30"/><text fill="#000000" font-family="sans-serif" font-size="10" lengthAdjust="spacing" textLength="14" x="413" y="25.668">Q4</text><line style="stroke:#C0C0C0;stroke-width:1.0;" x1="474.4" x2="474.4" y1="16" y2="30"/><text fill="#000000" font-family="sans-serif" font-size="10" lengthAdjust="spacing" textLength="14" x="449.4" y="25.668">Q1</text><line style="stroke:#C0C0C0;stroke-width:1.0;" x1="510.8" x2="510.8" y1="16" y2="30"/><text fill="#000000" font-family="sans-serif" font-size="10" lengthAdjust="spacing" textLength="14" x="485.6" y="25.668">Q2</text><line style="stroke:#C0C0C0;stroke-width:1.0;" x1="547.6" x2="547.6" y1="16" y2="30"/><text fill="#000000" font-family="sans-serif" font-size="10" lengthAdjust="spacing" textLength="14" x="522.2" y="25.668">Q3</text><text fill="#000000" font-family="sans-serif" font-size="10" lengthAdjust="spacing" textLength="14" x="558.8" y="25.668">Q4</text><line style="stroke:#C0C0C0;stroke-width:1.0;" x1="584" x2="584" y1="16" y2="30"/><line style="stroke:#C0C0C0;stroke-width:1.0;" x1="0" x2="584" y1="0" y2="0"/><line style="stroke:#C0C0C0;stroke-width:1.0;" x1="0" x2="584" y1="16" y2="16"/><line style="stroke:#C0C0C0;stroke-width:1.0;" x1="0" x2="584" y1="30" y2="30"/><line style="stroke:#181818;stroke-width:1.0;" x1="0" x2="5" y1="47.4775" y2="47.4775"/><line style="stroke:#181818;stroke-width:1.0;" x1="184" x2="583" y1="47.4775" y2="47.4775"/><path d="M0,80.9102 L0,101.5098 L73,101.5098 L73,90.9102 L63,80.9102 L0,80.9102 " fill="#FEFFDD" style="stroke:#181818;stroke-width:0.5;"/><path d="M63,80.9102 L63,90.9102 L73,90.9102 L63,80.9102 " fill="#FEFFDD" style="stroke:#181818;stroke-width:0.5;"/><text fill="#000000" font-family="sans-serif" font-size="9" lengthAdjust="spacing" textLength="52" x="6" y="94.6113">2Y PostDoc</text><rect fill="#E2E2F0" height="12.9551" style="stroke:none;stroke-width:1.0;" width="580" x="2" y="65.9551"/><line style="stroke:#181818;stroke-width:1.0;" x1="2" x2="582" y1="65.9551" y2="65.9551"/><line style="stroke:#181818;stroke-width:1.0;" x1="2" x2="582" y1="78.9102" y2="78.9102"/><line style="stroke:#181818;stroke-width:1.0;" x1="2" x2="2" y1="65.9551" y2="78.9102"/><line style="stroke:#181818;stroke-width:1.0;" x1="582" x2="582" y1="65.9551" y2="78.9102"/><rect fill="#ADD8E6" height="12.9551" style="stroke:none;stroke-width:1.0;" width="68.8" x="2" y="103.5098"/><line style="stroke:#ADD8E6;stroke-width:1.0;" x1="2" x2="70.8" y1="103.5098" y2="103.5098"/><line style="stroke:#ADD8E6;stroke-width:1.0;" x1="2" x2="70.8" y1="116.4648" y2="116.4648"/><line style="stroke:#ADD8E6;stroke-width:1.0;" x1="2" x2="2" y1="103.5098" y2="116.4648"/><line style="stroke:#ADD8E6;stroke-width:1.0;" x1="70.8" x2="70.8" y1="103.5098" y2="116.4648"/><polygon fill="#000000" points="72.6,120.4648,77.6,125.4648,72.6,130.4648,67.6,125.4648" style="stroke:#000000;stroke-width:1.0;"/><rect fill="#ADD8E6" height="12.9551" style="stroke:none;stroke-width:1.0;" width="252" x="38" y="137.4199"/><line style="stroke:#ADD8E6;stroke-width:1.0;" x1="38" x2="290" y1="137.4199" y2="137.4199"/><line style="stroke:#ADD8E6;stroke-width:1.0;" x1="38" x2="290" y1="150.375" y2="150.375"/><line style="stroke:#ADD8E6;stroke-width:1.0;" x1="38" x2="38" y1="137.4199" y2="150.375"/><line style="stroke:#ADD8E6;stroke-width:1.0;" x1="290" x2="290" y1="137.4199" y2="150.375"/><polygon fill="#000000" points="146.2,154.375,151.2,159.375,146.2,164.375,141.2,159.375" style="stroke:#000000;stroke-width:1.0;"/><polygon fill="#000000" points="291.8,171.3301,296.8,176.3301,291.8,181.3301,286.8,176.3301" style="stroke:#000000;stroke-width:1.0;"/><line style="stroke:#181818;stroke-width:1.0;" x1="0" x2="5" y1="202.7627" y2="202.7627"/><line style="stroke:#181818;stroke-width:1.0;" x1="143" x2="583" y1="202.7627" y2="202.7627"/><path d="M0,236.1953 L0,267.3945 L63,267.3945 L63,246.1953 L53,236.1953 L0,236.1953 " fill="#FEFFDD" style="stroke:#181818;stroke-width:0.5;"/><path d="M53,236.1953 L53,246.1953 L63,246.1953 L53,236.1953 " fill="#FEFFDD" style="stroke:#181818;stroke-width:0.5;"/><text fill="#000000" font-family="sans-serif" font-size="9" lengthAdjust="spacing" textLength="42" x="6" y="249.8965">2-3Y FTE</text><text fill="#000000" font-family="sans-serif" font-size="9" lengthAdjust="spacing" textLength="32" x="6" y="260.4961">2 PhDs</text><rect fill="#E2E2F0" height="12.9551" style="stroke:none;stroke-width:1.0;" width="580" x="2" y="221.2402"/><line style="stroke:#181818;stroke-width:1.0;" x1="2" x2="582" y1="221.2402" y2="221.2402"/><line style="stroke:#181818;stroke-width:1.0;" x1="2" x2="582" y1="234.1953" y2="234.1953"/><line style="stroke:#181818;stroke-width:1.0;" x1="2" x2="2" y1="221.2402" y2="234.1953"/><line style="stroke:#181818;stroke-width:1.0;" x1="582" x2="582" y1="221.2402" y2="234.1953"/><rect fill="#ADD8E6" height="12.9551" style="stroke:none;stroke-width:1.0;" width="142" x="2" y="269.3945"/><line style="stroke:#ADD8E6;stroke-width:1.0;" x1="2" x2="144" y1="269.3945" y2="269.3945"/><line style="stroke:#ADD8E6;stroke-width:1.0;" x1="2" x2="144" y1="282.3496" y2="282.3496"/><line style="stroke:#ADD8E6;stroke-width:1.0;" x1="2" x2="2" y1="269.3945" y2="282.3496"/><line style="stroke:#ADD8E6;stroke-width:1.0;" x1="144" x2="144" y1="269.3945" y2="282.3496"/><rect fill="#ADD8E6" height="12.9551" style="stroke:none;stroke-width:1.0;" width="396" x="38" y="286.3496"/><line style="stroke:#ADD8E6;stroke-width:1.0;" x1="38" x2="434" y1="286.3496" y2="286.3496"/><line style="stroke:#ADD8E6;stroke-width:1.0;" x1="38" x2="434" y1="299.3047" y2="299.3047"/><line style="stroke:#ADD8E6;stroke-width:1.0;" x1="38" x2="38" y1="286.3496" y2="299.3047"/><line style="stroke:#ADD8E6;stroke-width:1.0;" x1="434" x2="434" y1="286.3496" y2="299.3047"/><polygon fill="#000000" points="109.4,303.3047,114.4,308.3047,109.4,313.3047,104.4,308.3047" style="stroke:#000000;stroke-width:1.0;"/><polygon fill="#000000" points="435.8,320.2598,440.8,325.2598,435.8,330.2598,430.8,325.2598" style="stroke:#000000;stroke-width:1.0;"/><rect fill="#90EE90" height="12.9551" style="stroke:none;stroke-width:1.0;" width="434" x="111.2" y="337.2148"/><line style="stroke:#90EE90;stroke-width:1.0;" x1="111.2" x2="545.2" y1="337.2148" y2="337.2148"/><line style="stroke:#90EE90;stroke-width:1.0;" x1="111.2" x2="545.2" y1="350.1699" y2="350.1699"/><line style="stroke:#90EE90;stroke-width:1.0;" x1="111.2" x2="111.2" y1="337.2148" y2="350.1699"/><line style="stroke:#90EE90;stroke-width:1.0;" x1="545.2" x2="545.2" y1="337.2148" y2="350.1699"/><polygon fill="#000000" points="547,354.1699,552,359.1699,547,364.1699,542,359.1699" style="stroke:#000000;stroke-width:1.0;"/><rect fill="#90EE90" height="12.9551" style="stroke:none;stroke-width:1.0;" width="434" x="111.2" y="371.125"/><line style="stroke:#90EE90;stroke-width:1.0;" x1="111.2" x2="545.2" y1="371.125" y2="371.125"/><line style="stroke:#90EE90;stroke-width:1.0;" x1="111.2" x2="545.2" y1="384.0801" y2="384.0801"/><line style="stroke:#90EE90;stroke-width:1.0;" x1="111.2" x2="111.2" y1="371.125" y2="384.0801"/><line style="stroke:#90EE90;stroke-width:1.0;" x1="545.2" x2="545.2" y1="371.125" y2="384.0801"/><polygon fill="#000000" points="547,388.0801,552,393.0801,547,398.0801,542,393.0801" style="stroke:#000000;stroke-width:1.0;"/><line style="stroke:#181818;stroke-width:1.0;" x1="0" x2="5" y1="419.5127" y2="419.5127"/><line style="stroke:#181818;stroke-width:1.0;" x1="159" x2="583" y1="419.5127" y2="419.5127"/><path d="M0,452.9453 L0,484.1445 L53,484.1445 L53,462.9453 L43,452.9453 L0,452.9453 " fill="#FEFFDD" style="stroke:#181818;stroke-width:0.5;"/><path d="M43,452.9453 L43,462.9453 L53,462.9453 L43,452.9453 " fill="#FEFFDD" style="stroke:#181818;stroke-width:0.5;"/><text fill="#000000" font-family="sans-serif" font-size="9" lengthAdjust="spacing" textLength="31" x="6" y="466.6465">8Y FTE</text><text fill="#000000" font-family="sans-serif" font-size="9" lengthAdjust="spacing" textLength="32" x="6" y="477.2461">2 PhDs</text><rect fill="#E2E2F0" height="12.9551" style="stroke:none;stroke-width:1.0;" width="580" x="2" y="437.9902"/><line style="stroke:#181818;stroke-width:1.0;" x1="2" x2="582" y1="437.9902" y2="437.9902"/><line style="stroke:#181818;stroke-width:1.0;" x1="2" x2="582" y1="450.9453" y2="450.9453"/><line style="stroke:#181818;stroke-width:1.0;" x1="2" x2="2" y1="437.9902" y2="450.9453"/><line style="stroke:#181818;stroke-width:1.0;" x1="582" x2="582" y1="437.9902" y2="450.9453"/><rect fill="#ADD8E6" height="12.9551" style="stroke:none;stroke-width:1.0;" width="288" x="2" y="486.1445"/><line style="stroke:#ADD8E6;stroke-width:1.0;" x1="2" x2="290" y1="486.1445" y2="486.1445"/><line style="stroke:#ADD8E6;stroke-width:1.0;" x1="2" x2="290" y1="499.0996" y2="499.0996"/><line style="stroke:#ADD8E6;stroke-width:1.0;" x1="2" x2="2" y1="486.1445" y2="499.0996"/><line style="stroke:#ADD8E6;stroke-width:1.0;" x1="290" x2="290" y1="486.1445" y2="499.0996"/><polygon fill="#000000" points="109.4,503.0996,114.4,508.0996,109.4,513.0996,104.4,508.0996" style="stroke:#000000;stroke-width:1.0;"/><rect fill="#ADD8E6" height="12.9551" style="stroke:none;stroke-width:1.0;" width="470" x="111.2" y="520.0547"/><line style="stroke:#ADD8E6;stroke-width:1.0;" x1="111.2" x2="581.2" y1="520.0547" y2="520.0547"/><line style="stroke:#ADD8E6;stroke-width:1.0;" x1="111.2" x2="581.2" y1="533.0098" y2="533.0098"/><line style="stroke:#ADD8E6;stroke-width:1.0;" x1="111.2" x2="111.2" y1="520.0547" y2="533.0098"/><line style="stroke:#ADD8E6;stroke-width:1.0;" x1="581.2" x2="581.2" y1="520.0547" y2="533.0098"/><polygon fill="#000000" points="218.6,537.0098,223.6,542.0098,218.6,547.0098,213.6,542.0098" style="stroke:#000000;stroke-width:1.0;"/><polygon fill="#000000" points="365,553.9648,370,558.9648,365,563.9648,360,558.9648" style="stroke:#000000;stroke-width:1.0;"/><polygon fill="#000000" points="583,570.9199,588,575.9199,583,580.9199,578,575.9199" style="stroke:#000000;stroke-width:1.0;"/><rect fill="#90EE90" height="12.9551" style="stroke:none;stroke-width:1.0;" width="434" x="111.2" y="587.875"/><line style="stroke:#90EE90;stroke-width:1.0;" x1="111.2" x2="545.2" y1="587.875" y2="587.875"/><line style="stroke:#90EE90;stroke-width:1.0;" x1="111.2" x2="545.2" y1="600.8301" y2="600.8301"/><line style="stroke:#90EE90;stroke-width:1.0;" x1="111.2" x2="111.2" y1="587.875" y2="600.8301"/><line style="stroke:#90EE90;stroke-width:1.0;" x1="545.2" x2="545.2" y1="587.875" y2="600.8301"/><polygon fill="#000000" points="547,604.8301,552,609.8301,547,614.8301,542,609.8301" style="stroke:#000000;stroke-width:1.0;"/><rect fill="#90EE90" height="12.9551" style="stroke:none;stroke-width:1.0;" width="434" x="111.2" y="621.7852"/><line style="stroke:#90EE90;stroke-width:1.0;" x1="111.2" x2="545.2" y1="621.7852" y2="621.7852"/><line style="stroke:#90EE90;stroke-width:1.0;" x1="111.2" x2="545.2" y1="634.7402" y2="634.7402"/><line style="stroke:#90EE90;stroke-width:1.0;" x1="111.2" x2="111.2" y1="621.7852" y2="634.7402"/><line style="stroke:#90EE90;stroke-width:1.0;" x1="545.2" x2="545.2" y1="621.7852" y2="634.7402"/><polygon fill="#000000" points="547,638.7402,552,643.7402,547,648.7402,542,643.7402" style="stroke:#000000;stroke-width:1.0;"/><text fill="#000000" font-family="sans-serif" font-size="11" lengthAdjust="spacing" textLength="169" x="10" y="51.6348">T3.1 Methodology development</text><text fill="#000000" font-family="sans-serif" font-size="11" lengthAdjust="spacing" textLength="48" x="6" y="76.5898">Lead IRIT</text><text fill="#000000" font-family="sans-serif" font-size="11" lengthAdjust="spacing" textLength="129" x="74.8" y="114.1445">Requirements gathering</text><text fill="#000000" font-family="sans-serif" font-size="11" lengthAdjust="spacing" textLength="123" x="80.6" y="131.0996">D3.1a -- Requirements</text><text fill="#000000" font-family="sans-serif" font-size="11" lengthAdjust="spacing" textLength="86" x="42" y="148.0547">Methodo design</text><text fill="#000000" font-family="sans-serif" font-size="11" lengthAdjust="spacing" textLength="164" x="154.2" y="165.0098">D3.1b -- Draft of Methodology</text><text fill="#000000" font-family="sans-serif" font-size="11" lengthAdjust="spacing" textLength="119" x="299.8" y="181.9648">D3.1c -- Methodology</text><text fill="#000000" font-family="sans-serif" font-size="11" lengthAdjust="spacing" textLength="128" x="10" y="206.9199">T3.2 DevOps and CI/CD</text><text fill="#000000" font-family="sans-serif" font-size="11" lengthAdjust="spacing" textLength="56" x="6" y="231.875">Lead LaBRI</text><text fill="#000000" font-family="sans-serif" font-size="11" lengthAdjust="spacing" textLength="89" x="6" y="280.0293">DevOps strategy</text><text fill="#000000" font-family="sans-serif" font-size="11" lengthAdjust="spacing" textLength="111" x="42" y="296.9844">CI/CD pipeline setup</text><text fill="#000000" font-family="sans-serif" font-size="11" lengthAdjust="spacing" textLength="121" x="117.4" y="313.9395">D3.2a -- Repo is ready</text><text fill="#000000" font-family="sans-serif" font-size="11" lengthAdjust="spacing" textLength="192" x="443.8" y="330.8945">D3.2b -- CI/CD pipeline is complete</text><text fill="#000000" font-family="sans-serif" font-size="11" lengthAdjust="spacing" textLength="28" x="115.2" y="347.8496">PhD1</text><text fill="#000000" font-family="sans-serif" font-size="11" lengthAdjust="spacing" textLength="115" x="555" y="364.8047">D3.2c -- PhD thesis 1</text><text fill="#000000" font-family="sans-serif" font-size="11" lengthAdjust="spacing" textLength="28" x="115.2" y="381.7598">PhD2</text><text fill="#000000" font-family="sans-serif" font-size="11" lengthAdjust="spacing" textLength="116" x="555" y="398.7148">D3.2d -- PhD thesis 2</text><text fill="#000000" font-family="sans-serif" font-size="11" lengthAdjust="spacing" textLength="144" x="10" y="423.6699">T3.3 Platform development</text><text fill="#000000" font-family="sans-serif" font-size="11" lengthAdjust="spacing" textLength="50" x="6" y="448.625">Lead CEA</text><text fill="#000000" font-family="sans-serif" font-size="11" lengthAdjust="spacing" textLength="84" x="6" y="496.7793">Platform design</text><text fill="#000000" font-family="sans-serif" font-size="11" lengthAdjust="spacing" textLength="117" x="117.4" y="513.7344">D3.3a -- POC is ready</text><text fill="#000000" font-family="sans-serif" font-size="11" lengthAdjust="spacing" textLength="131" x="115.2" y="530.6895">Platform implementation</text><text fill="#000000" font-family="sans-serif" font-size="11" lengthAdjust="spacing" textLength="111" x="226.6" y="547.6445">D3.3b -- Platform v1</text><text fill="#000000" font-family="sans-serif" font-size="11" lengthAdjust="spacing" textLength="110" x="373" y="564.5996">D3.3c -- Platform v2</text><text fill="#000000" font-family="sans-serif" font-size="11" lengthAdjust="spacing" textLength="133" x="591" y="581.5547">D3.3d -- Platform v-final</text><text fill="#000000" font-family="sans-serif" font-size="11" lengthAdjust="spacing" textLength="28" x="115.2" y="598.5098">PhD3</text><text fill="#000000" font-family="sans-serif" font-size="11" lengthAdjust="spacing" textLength="115" x="555" y="615.4648">D3.3e -- PhD thesis 3</text><text fill="#000000" font-family="sans-serif" font-size="11" lengthAdjust="spacing" textLength="28" x="115.2" y="632.4199">PhD4</text><text fill="#000000" font-family="sans-serif" font-size="11" lengthAdjust="spacing" textLength="113" x="555" y="649.375">D3.3f -- PhD thesis 4</text><line style="stroke:#C0C0C0;stroke-width:1.0;" x1="0" x2="0" y1="653.6953" y2="667.6953"/><line style="stroke:#C0C0C0;stroke-width:1.0;" x1="36" x2="36" y1="653.6953" y2="667.6953"/><text fill="#000000" font-family="sans-serif" font-size="10" lengthAdjust="spacing" textLength="14" x="11" y="663.3633">Q1</text><line style="stroke:#C0C0C0;stroke-width:1.0;" x1="72.4" x2="72.4" y1="653.6953" y2="667.6953"/><text fill="#000000" font-family="sans-serif" font-size="10" lengthAdjust="spacing" textLength="14" x="47.2" y="663.3633">Q2</text><line style="stroke:#C0C0C0;stroke-width:1.0;" x1="109.2" x2="109.2" y1="653.6953" y2="667.6953"/><text fill="#000000" font-family="sans-serif" font-size="10" lengthAdjust="spacing" textLength="14" x="83.8" y="663.3633">Q3</text><line style="stroke:#C0C0C0;stroke-width:1.0;" x1="146" x2="146" y1="653.6953" y2="667.6953"/><text fill="#000000" font-family="sans-serif" font-size="10" lengthAdjust="spacing" textLength="14" x="120.6" y="663.3633">Q4</text><line style="stroke:#C0C0C0;stroke-width:1.0;" x1="182" x2="182" y1="653.6953" y2="667.6953"/><text fill="#000000" font-family="sans-serif" font-size="10" lengthAdjust="spacing" textLength="14" x="157" y="663.3633">Q1</text><line style="stroke:#C0C0C0;stroke-width:1.0;" x1="218.4" x2="218.4" y1="653.6953" y2="667.6953"/><text fill="#000000" font-family="sans-serif" font-size="10" lengthAdjust="spacing" textLength="14" x="193.2" y="663.3633">Q2</text><line style="stroke:#C0C0C0;stroke-width:1.0;" x1="255.2" x2="255.2" y1="653.6953" y2="667.6953"/><text fill="#000000" font-family="sans-serif" font-size="10" lengthAdjust="spacing" textLength="14" x="229.8" y="663.3633">Q3</text><line style="stroke:#C0C0C0;stroke-width:1.0;" x1="292" x2="292" y1="653.6953" y2="667.6953"/><text fill="#000000" font-family="sans-serif" font-size="10" lengthAdjust="spacing" textLength="14" x="266.6" y="663.3633">Q4</text><line style="stroke:#C0C0C0;stroke-width:1.0;" x1="328.4" x2="328.4" y1="653.6953" y2="667.6953"/><text fill="#000000" font-family="sans-serif" font-size="10" lengthAdjust="spacing" textLength="14" x="303.2" y="663.3633">Q1</text><line style="stroke:#C0C0C0;stroke-width:1.0;" x1="364.8" x2="364.8" y1="653.6953" y2="667.6953"/><text fill="#000000" font-family="sans-serif" font-size="10" lengthAdjust="spacing" textLength="14" x="339.6" y="663.3633">Q2</text><line style="stroke:#C0C0C0;stroke-width:1.0;" x1="401.6" x2="401.6" y1="653.6953" y2="667.6953"/><text fill="#000000" font-family="sans-serif" font-size="10" lengthAdjust="spacing" textLength="14" x="376.2" y="663.3633">Q3</text><line style="stroke:#C0C0C0;stroke-width:1.0;" x1="438.4" x2="438.4" y1="653.6953" y2="667.6953"/><text fill="#000000" font-family="sans-serif" font-size="10" lengthAdjust="spacing" textLength="14" x="413" y="663.3633">Q4</text><line style="stroke:#C0C0C0;stroke-width:1.0;" x1="474.4" x2="474.4" y1="653.6953" y2="667.6953"/><text fill="#000000" font-family="sans-serif" font-size="10" lengthAdjust="spacing" textLength="14" x="449.4" y="663.3633">Q1</text><line style="stroke:#C0C0C0;stroke-width:1.0;" x1="510.8" x2="510.8" y1="653.6953" y2="667.6953"/><text fill="#000000" font-family="sans-serif" font-size="10" lengthAdjust="spacing" textLength="14" x="485.6" y="663.3633">Q2</text><line style="stroke:#C0C0C0;stroke-width:1.0;" x1="547.6" x2="547.6" y1="653.6953" y2="667.6953"/><text fill="#000000" font-family="sans-serif" font-size="10" lengthAdjust="spacing" textLength="14" x="522.2" y="663.3633">Q3</text><text fill="#000000" font-family="sans-serif" font-size="10" lengthAdjust="spacing" textLength="14" x="558.8" y="663.3633">Q4</text><line style="stroke:#C0C0C0;stroke-width:1.0;" x1="584" x2="584" y1="653.6953" y2="667.6953"/><line style="stroke:#C0C0C0;stroke-width:1.0;" x1="0" x2="0" y1="667.6953" y2="683.6953"/><line style="stroke:#C0C0C0;stroke-width:1.0;" x1="146" x2="146" y1="667.6953" y2="683.6953"/><text fill="#000000" font-family="sans-serif" font-size="12" font-weight="bold" lengthAdjust="spacing" textLength="32" x="57" y="679.2969">2026</text><line style="stroke:#C0C0C0;stroke-width:1.0;" x1="292" x2="292" y1="667.6953" y2="683.6953"/><text fill="#000000" font-family="sans-serif" font-size="12" font-weight="bold" lengthAdjust="spacing" textLength="32" x="203" y="679.2969">2027</text><line style="stroke:#C0C0C0;stroke-width:1.0;" x1="438.4" x2="438.4" y1="667.6953" y2="683.6953"/><text fill="#000000" font-family="sans-serif" font-size="12" font-weight="bold" lengthAdjust="spacing" textLength="32" x="349.2" y="679.2969">2028</text><text fill="#000000" font-family="sans-serif" font-size="12" font-weight="bold" lengthAdjust="spacing" textLength="32" x="495.2" y="679.2969">2029</text><line style="stroke:#C0C0C0;stroke-width:1.0;" x1="584" x2="584" y1="667.6953" y2="683.6953"/><line style="stroke:#C0C0C0;stroke-width:1.0;" x1="0" x2="584" y1="653.6953" y2="653.6953"/><line style="stroke:#C0C0C0;stroke-width:1.0;" x1="0" x2="584" y1="667.6953" y2="667.6953"/><line style="stroke:#C0C0C0;stroke-width:1.0;" x1="0" x2="584" y1="683.6953" y2="683.6953"/><rect fill="#DDDDDD" height="96.4414" id="_legend" rx="7.5" ry="7.5" style="stroke:#000000;stroke-width:1.0;" width="172" x="205.5" y="696.6953"/><text fill="#000000" font-family="sans-serif" font-size="14" lengthAdjust="spacing" textLength="54" x="210.5" y="715.2305">Legend:</text><text fill="#000000" font-family="sans-serif" font-size="14" font-weight="bold" lengthAdjust="spacing" textLength="39" x="215.5" y="733.7188">Color</text><text fill="#000000" font-family="sans-serif" font-size="14" font-weight="bold" lengthAdjust="spacing" textLength="75" x="264.5" y="733.7188">Task Type</text><rect fill="#D3D3D3" height="16.4883" style="stroke:none;stroke-width:1.0;" width="49" x="210.5" y="736.6719"/><text fill="#000000" font-family="sans-serif" font-size="14" lengthAdjust="spacing" textLength="4" x="210.5" y="750.207">&#160;</text><text fill="#000000" font-family="sans-serif" font-size="14" lengthAdjust="spacing" textLength="67" x="263.5" y="750.207">WP leader</text><rect fill="#ADD8E6" height="16.4883" style="stroke:none;stroke-width:1.0;" width="49" x="210.5" y="753.1602"/><text fill="#000000" font-family="sans-serif" font-size="14" lengthAdjust="spacing" textLength="4" x="210.5" y="766.6953">&#160;</text><text fill="#000000" font-family="sans-serif" font-size="14" lengthAdjust="spacing" textLength="105" x="263.5" y="766.6953">FTE &amp; PostDocs</text><rect fill="#90EE90" height="16.4883" style="stroke:none;stroke-width:1.0;" width="49" x="210.5" y="769.6484"/><text fill="#000000" font-family="sans-serif" font-size="14" lengthAdjust="spacing" textLength="4" x="210.5" y="783.1836">&#160;</text><text fill="#000000" font-family="sans-serif" font-size="14" lengthAdjust="spacing" textLength="34" x="263.5" y="783.1836">PhDs</text><line style="stroke:#000000;stroke-width:1.0;" x1="210.5" x2="372.5" y1="720.1836" y2="720.1836"/><line style="stroke:#000000;stroke-width:1.0;" x1="210.5" x2="372.5" y1="736.6719" y2="736.6719"/><line style="stroke:#000000;stroke-width:1.0;" x1="210.5" x2="372.5" y1="753.1602" y2="753.1602"/><line style="stroke:#000000;stroke-width:1.0;" x1="210.5" x2="372.5" y1="769.6484" y2="769.6484"/><line style="stroke:#000000;stroke-width:1.0;" x1="210.5" x2="372.5" y1="786.1367" y2="786.1367"/><line style="stroke:#000000;stroke-width:1.0;" x1="210.5" x2="210.5" y1="720.1836" y2="786.1367"/><line style="stroke:#000000;stroke-width:1.0;" x1="259.5" x2="259.5" y1="720.1836" y2="786.1367"/><line style="stroke:#000000;stroke-width:1.0;" x1="372.5" x2="372.5" y1="720.1836" y2="786.1367"/><!--SRC=[xLTjQzj84Fw-lsBWe6afJYsjuxhchhInaf3K8SPrUnIJ3sjfBEjErggxAuF1FxwpaXn9zZKnWOExuY_9HfgNP-PvPZNve8rG9XI9CJ0Qy2jx62pe4MEfYXAZVH4ZVC_e2QfupKPA_eM-WTnDWraWEDg0dCEDICXg3MxRxR8Js1fY4XHclBJpqCVb39KrVCTQBPZmKmTkqIna86CPhY705SOoNM9YeDMoiQGsdlJ11P5eDXsY2E1wV3sv1uNViqYX1gVJRKCWrfebqY3Cf35ooG3SRrjlHaZ0lcHiEYxSR0ODeI1uL6ju3qB3rC8HzSWzDmzCkGE8DFW4KY4T4nX6uSASnncogMUz22tKGz_3GgGf9kHhje5Fj6q9OIWhfcfr52PLxbajTxVJFY1twLLIOjlyaRYB2oPoP3EBp5DYdZDGxtK5qVhLE7nRUFhMi-QmNzBieQI2IvSONjsb1UR1zPk1Lv3ed9x1vUG2NczF9P53SJw-FeJ95l-Mkz4HHWjFrmWbh4LERPGmQ66MxNJhLFBksM7jj5wrTZQaFIrgIgCKuoX1q6YojCfNfyzfjm_ap_qfVpaDRYcjLDeeYjgsRX9tvnjPpbH1kPjJlWCrHx1COpIunwDRyJYbxZfLHNwZedUFj_1A8IPiwrShQHzXBYrAPMy7JQ6SVKn-0vDROGgUYIbu0bEmWydTnnJiw9t3A1PcBjLo_-9ohU0xi4QXjlVMuEBZ0MBl_LJgqrgsniN1wqf_omyK7dzCwPvzdtVaRd28y6hW8YipsmXX8ba3sHWFftVWFFBPuxpnNEqFoLVEphMMnRKxZVjDO_UVZNk5ST0qRisZHCHxgk3DwU5LmS-S7lx4z73SKIhVnzISdaw5wPdJmv-O7ZxVmTJPnrHDpmaCCRIdkFXL_DLdcpzWO2407IP2_msJTOgmOPlVVuijdb29zNlOm9yZY4cF121_zo2OzvlyC_DY-ztNjVTvBTRP3XKzjsDLfcSVw6U-1z7ntrcA3jXrZhlD_t2tEUunnptcLzvZZelBSN4vBYuFcFvx-mgnd9WljqDOeTAaMleFcshhdFANaqK6bpW3vuogxNVQ_VOP3VB4bjvvnLvUZOOh5xJCb8yGHFJLYMQPrVqhTYDM0iPPOg8bzk6EUd7ZVTe-W8ja5IcPs3bXDrzlAuDkftKU6VYCYh30rrlcuLnaiI4FNmQqYFJXo-IorMD3aOIP22dsNB61fBXgtOVByGy0]--></g></svg>