<?xml version="1.0" encoding="us-ascii" standalone="no"?><svg xmlns="http://www.w3.org/2000/svg" xmlns:xlink="http://www.w3.org/1999/xlink" contentStyleType="text/css" height="808px" preserveAspectRatio="none" style="width:835px;height:808px;background:#FFFFFF;" version="1.1" viewBox="0 0 835 808" width="835px" zoomAndPan="magnify"><defs/><g><line style="stroke:#C0C0C0;stroke-width:1.0;" x1="0" x2="0" y1="0" y2="16"/><line style="stroke:#C0C0C0;stroke-width:1.0;" x1="146" x2="146" y1="0" y2="16"/><text fill="#000000" font-family="sans-serif" font-size="12" font-weight="bold" lengthAdjust="spacing" textLength="32" x="57" y="11.6016">2026</text><line style="stroke:#C0C0C0;stroke-width:1.0;" x1="292" x2="292" y1="0" y2="16"/><text fill="#000000" font-family="sans-serif" font-size="12" font-weight="bold" lengthAdjust="spacing" textLength="32" x="203" y="11.6016">2027</text><line style="stroke:#C0C0C0;stroke-width:1.0;" x1="438.4" x2="438.4" y1="0" y2="16"/><text fill="#000000" font-family="sans-serif" font-size="12" font-weight="bold" lengthAdjust="spacing" textLength="32" x="349.2" y="11.6016">2028</text><line style="stroke:#C0C0C0;stroke-width:1.0;" x1="584.4" x2="584.4" y1="0" y2="16"/><text fill="#000000" font-family="sans-serif" font-size="12" font-weight="bold" lengthAdjust="spacing" textLength="32" x="495.4" y="11.6016">2029</text><text fill="#000000" font-family="sans-serif" font-size="12" font-weight="bold" lengthAdjust="spacing" textLength="32" x="641.4" y="11.6016">2030</text><line style="stroke:#C0C0C0;stroke-width:1.0;" x1="730.4" x2="730.4" y1="0" y2="16"/><line style="stroke:#C0C0C0;stroke-width:1.0;" x1="0" x2="0" y1="16" y2="30"/><line style="stroke:#C0C0C0;stroke-width:1.0;" x1="36" x2="36" y1="16" y2="30"/><text fill="#000000" font-family="sans-serif" font-size="10" lengthAdjust="spacing" textLength="14" x="11" y="25.668">Q1</text><line style="stroke:#C0C0C0;stroke-width:1.0;" x1="72.4" x2="72.4" y1="16" y2="30"/><text fill="#000000" font-family="sans-serif" font-size="10" lengthAdjust="spacing" textLength="14" x="47.2" y="25.668">Q2</text><line style="stroke:#C0C0C0;stroke-width:1.0;" x1="109.2" x2="109.2" y1="16" y2="30"/><text fill="#000000" font-family="sans-serif" font-size="10" lengthAdjust="spacing" textLength="14" x="83.8" y="25.668">Q3</text><line style="stroke:#C0C0C0;stroke-width:1.0;" x1="146" x2="146" y1="16" y2="30"/><text fill="#000000" font-family="sans-serif" font-size="10" lengthAdjust="spacing" textLength="14" x="120.6" y="25.668">Q4</text><line style="stroke:#C0C0C0;stroke-width:1.0;" x1="182" x2="182" y1="16" y2="30"/><text fill="#000000" font-family="sans-serif" font-size="10" lengthAdjust="spacing" textLength="14" x="157" y="25.668">Q1</text><line style="stroke:#C0C0C0;stroke-width:1.0;" x1="218.4" x2="218.4" y1="16" y2="30"/><text fill="#000000" font-family="sans-serif" font-size="10" lengthAdjust="spacing" textLength="14" x="193.2" y="25.668">Q2</text><line style="stroke:#C0C0C0;stroke-width:1.0;" x1="255.2" x2="255.2" y1="16" y2="30"/><text fill="#000000" font-family="sans-serif" font-size="10" lengthAdjust="spacing" textLength="14" x="229.8" y="25.668">Q3</text><line style="stroke:#C0C0C0;stroke-width:1.0;" x1="292" x2="292" y1="16" y2="30"/><text fill="#000000" font-family="sans-serif" font-size="10" lengthAdjust="spacing" textLength="14" x="266.6" y="25.668">Q4</text><line style="stroke:#C0C0C0;stroke-width:1.0;" x1="328.4" x2="328.4" y1="16" y2="30"/><text fill="#000000" font-family="sans-serif" font-size="10" lengthAdjust="spacing" textLength="14" x="303.2" y="25.668">Q1</text><line style="stroke:#C0C0C0;stroke-width:1.0;" x1="364.8" x2="364.8" y1="16" y2="30"/><text fill="#000000" font-family="sans-serif" font-size="10" lengthAdjust="spacing" textLength="14" x="339.6" y="25.668">Q2</text><line style="stroke:#C0C0C0;stroke-width:1.0;" x1="401.6" x2="401.6" y1="16" y2="30"/><text fill="#000000" font-family="sans-serif" font-size="10" lengthAdjust="spacing" textLength="14" x="376.2" y="25.668">Q3</text><line style="stroke:#C0C0C0;stroke-width:1.0;" x1="438.4" x2="438.4" y1="16" y2="30"/><text fill="#000000" font-family="sans-serif" font-size="10" lengthAdjust="spacing" textLength="14" x="413" y="25.668">Q4</text><line style="stroke:#C0C0C0;stroke-width:1.0;" x1="474.4" x2="474.4" y1="16" y2="30"/><text fill="#000000" font-family="sans-serif" font-size="10" lengthAdjust="spacing" textLength="14" x="449.4" y="25.668">Q1</text><line style="stroke:#C0C0C0;stroke-width:1.0;" x1="510.8" x2="510.8" y1="16" y2="30"/><text fill="#000000" font-family="sans-serif" font-size="10" lengthAdjust="spacing" textLength="14" x="485.6" y="25.668">Q2</text><line style="stroke:#C0C0C0;stroke-width:1.0;" x1="547.6" x2="547.6" y1="16" y2="30"/><text fill="#000000" font-family="sans-serif" font-size="10" lengthAdjust="spacing" textLength="14" x="522.2" y="25.668">Q3</text><line style="stroke:#C0C0C0;stroke-width:1.0;" x1="584.4" x2="584.4" y1="16" y2="30"/><text fill="#000000" font-family="sans-serif" font-size="10" lengthAdjust="spacing" textLength="14" x="559" y="25.668">Q4</text><line style="stroke:#C0C0C0;stroke-width:1.0;" x1="620.4" x2="620.4" y1="16" y2="30"/><text fill="#000000" font-family="sans-serif" font-size="10" lengthAdjust="spacing" textLength="14" x="595.4" y="25.668">Q1</text><line style="stroke:#C0C0C0;stroke-width:1.0;" x1="656.8" x2="656.8" y1="16" y2="30"/><text fill="#000000" font-family="sans-serif" font-size="10" lengthAdjust="spacing" textLength="14" x="631.6" y="25.668">Q2</text><line style="stroke:#C0C0C0;stroke-width:1.0;" x1="693.6" x2="693.6" y1="16" y2="30"/><text fill="#000000" font-family="sans-serif" font-size="10" lengthAdjust="spacing" textLength="14" x="668.2" y="25.668">Q3</text><text fill="#000000" font-family="sans-serif" font-size="10" lengthAdjust="spacing" textLength="14" x="705" y="25.668">Q4</text><line style="stroke:#C0C0C0;stroke-width:1.0;" x1="730.4" x2="730.4" y1="16" y2="30"/><line style="stroke:#C0C0C0;stroke-width:1.0;" x1="0" x2="730.4" y1="0" y2="0"/><line style="stroke:#C0C0C0;stroke-width:1.0;" x1="0" x2="730.4" y1="16" y2="16"/><line style="stroke:#C0C0C0;stroke-width:1.0;" x1="0" x2="730.4" y1="30" y2="30"/><line style="stroke:#181818;stroke-width:1.0;" x1="0" x2="5" y1="47.4775" y2="47.4775"/><line style="stroke:#181818;stroke-width:1.0;" x1="184" x2="729.4" y1="47.4775" y2="47.4775"/><path d="M0,80.9102 L0,101.5098 L73,101.5098 L73,90.9102 L63,80.9102 L0,80.9102 " fill="#FEFFDD" style="stroke:#181818;stroke-width:0.5;"/><path d="M63,80.9102 L63,90.9102 L73,90.9102 L63,80.9102 " fill="#FEFFDD" style="stroke:#181818;stroke-width:0.5;"/><text fill="#000000" font-family="sans-serif" font-size="9" lengthAdjust="spacing" textLength="52" x="6" y="94.6113">2Y PostDoc</text><rect fill="#E2E2F0" height="12.9551" style="stroke:none;stroke-width:1.0;" width="726" x="2" y="65.9551"/><line style="stroke:#181818;stroke-width:1.0;" x1="2" x2="728" y1="65.9551" y2="65.9551"/><line style="stroke:#181818;stroke-width:1.0;" x1="2" x2="728" y1="78.9102" y2="78.9102"/><line style="stroke:#181818;stroke-width:1.0;" x1="2" x2="2" y1="65.9551" y2="78.9102"/><line style="stroke:#181818;stroke-width:1.0;" x1="728" x2="728" y1="65.9551" y2="78.9102"/><rect fill="#ADD8E6" height="12.9551" style="stroke:none;stroke-width:1.0;" width="68.8" x="2" y="103.5098"/><line style="stroke:#ADD8E6;stroke-width:1.0;" x1="2" x2="70.8" y1="103.5098" y2="103.5098"/><line style="stroke:#ADD8E6;stroke-width:1.0;" x1="2" x2="70.8" y1="116.4648" y2="116.4648"/><line style="stroke:#ADD8E6;stroke-width:1.0;" x1="2" x2="2" y1="103.5098" y2="116.4648"/><line style="stroke:#ADD8E6;stroke-width:1.0;" x1="70.8" x2="70.8" y1="103.5098" y2="116.4648"/><polygon fill="#000000" points="72.6,120.4648,77.6,125.4648,72.6,130.4648,67.6,125.4648" style="stroke:#000000;stroke-width:1.0;"/><rect fill="#ADD8E6" height="12.9551" style="stroke:none;stroke-width:1.0;" width="252" x="38" y="137.4199"/><line style="stroke:#ADD8E6;stroke-width:1.0;" x1="38" x2="290" y1="137.4199" y2="137.4199"/><line style="stroke:#ADD8E6;stroke-width:1.0;" x1="38" x2="290" y1="150.375" y2="150.375"/><line style="stroke:#ADD8E6;stroke-width:1.0;" x1="38" x2="38" y1="137.4199" y2="150.375"/><line style="stroke:#ADD8E6;stroke-width:1.0;" x1="290" x2="290" y1="137.4199" y2="150.375"/><polygon fill="#000000" points="146.2,154.375,151.2,159.375,146.2,164.375,141.2,159.375" style="stroke:#000000;stroke-width:1.0;"/><polygon fill="#000000" points="291.8,171.3301,296.8,176.3301,291.8,181.3301,286.8,176.3301" style="stroke:#000000;stroke-width:1.0;"/><line style="stroke:#181818;stroke-width:1.0;" x1="0" x2="5" y1="202.7627" y2="202.7627"/><line style="stroke:#181818;stroke-width:1.0;" x1="143" x2="729.4" y1="202.7627" y2="202.7627"/><path d="M0,236.1953 L0,267.3945 L63,267.3945 L63,246.1953 L53,236.1953 L0,236.1953 " fill="#FEFFDD" style="stroke:#181818;stroke-width:0.5;"/><path d="M53,236.1953 L53,246.1953 L63,246.1953 L53,236.1953 " fill="#FEFFDD" style="stroke:#181818;stroke-width:0.5;"/><text fill="#000000" font-family="sans-serif" font-size="9" lengthAdjust="spacing" textLength="42" x="6" y="249.8965">2-3Y FTE</text><text fill="#000000" font-family="sans-serif" font-size="9" lengthAdjust="spacing" textLength="32" x="6" y="260.4961">2 PhDs</text><rect fill="#E2E2F0" height="12.9551" style="stroke:none;stroke-width:1.0;" width="726" x="2" y="221.2402"/><line style="stroke:#181818;stroke-width:1.0;" x1="2" x2="728" y1="221.2402" y2="221.2402"/><line style="stroke:#181818;stroke-width:1.0;" x1="2" x2="728" y1="234.1953" y2="234.1953"/><line style="stroke:#181818;stroke-width:1.0;" x1="2" x2="2" y1="221.2402" y2="234.1953"/><line style="stroke:#181818;stroke-width:1.0;" x1="728" x2="728" y1="221.2402" y2="234.1953"/><rect fill="#ADD8E6" height="12.9551" style="stroke:none;stroke-width:1.0;" width="142" x="2" y="269.3945"/><line style="stroke:#ADD8E6;stroke-width:1.0;" x1="2" x2="144" y1="269.3945" y2="269.3945"/><line style="stroke:#ADD8E6;stroke-width:1.0;" x1="2" x2="144" y1="282.3496" y2="282.3496"/><line style="stroke:#ADD8E6;stroke-width:1.0;" x1="2" x2="2" y1="269.3945" y2="282.3496"/><line style="stroke:#ADD8E6;stroke-width:1.0;" x1="144" x2="144" y1="269.3945" y2="282.3496"/><rect fill="#ADD8E6" height="12.9551" style="stroke:none;stroke-width:1.0;" width="690.4" x="38" y="286.3496"/><line style="stroke:#ADD8E6;stroke-width:1.0;" x1="38" x2="728.4" y1="286.3496" y2="286.3496"/><line style="stroke:#ADD8E6;stroke-width:1.0;" x1="38" x2="728.4" y1="299.3047" y2="299.3047"/><line style="stroke:#ADD8E6;stroke-width:1.0;" x1="38" x2="38" y1="286.3496" y2="299.3047"/><line style="stroke:#ADD8E6;stroke-width:1.0;" x1="728.4" x2="728.4" y1="286.3496" y2="299.3047"/><polygon fill="#000000" points="109.4,303.3047,114.4,308.3047,109.4,313.3047,104.4,308.3047" style="stroke:#000000;stroke-width:1.0;"/><polygon fill="#000000" points="255.4,320.2598,260.4,325.2598,255.4,330.2598,250.4,325.2598" style="stroke:#000000;stroke-width:1.0;"/><rect fill="#90EE90" height="12.9551" style="stroke:none;stroke-width:1.0;" width="434" x="111.2" y="337.2148"/><line style="stroke:#90EE90;stroke-width:1.0;" x1="111.2" x2="545.2" y1="337.2148" y2="337.2148"/><line style="stroke:#90EE90;stroke-width:1.0;" x1="111.2" x2="545.2" y1="350.1699" y2="350.1699"/><line style="stroke:#90EE90;stroke-width:1.0;" x1="111.2" x2="111.2" y1="337.2148" y2="350.1699"/><line style="stroke:#90EE90;stroke-width:1.0;" x1="545.2" x2="545.2" y1="337.2148" y2="350.1699"/><polygon fill="#000000" points="547,354.1699,552,359.1699,547,364.1699,542,359.1699" style="stroke:#000000;stroke-width:1.0;"/><rect fill="#90EE90" height="12.9551" style="stroke:none;stroke-width:1.0;" width="434" x="257.2" y="371.125"/><line style="stroke:#90EE90;stroke-width:1.0;" x1="257.2" x2="691.2" y1="371.125" y2="371.125"/><line style="stroke:#90EE90;stroke-width:1.0;" x1="257.2" x2="691.2" y1="384.0801" y2="384.0801"/><line style="stroke:#90EE90;stroke-width:1.0;" x1="257.2" x2="257.2" y1="371.125" y2="384.0801"/><line style="stroke:#90EE90;stroke-width:1.0;" x1="691.2" x2="691.2" y1="371.125" y2="384.0801"/><polygon fill="#000000" points="693,388.0801,698,393.0801,693,398.0801,688,393.0801" style="stroke:#000000;stroke-width:1.0;"/><line style="stroke:#181818;stroke-width:1.0;" x1="0" x2="5" y1="419.5127" y2="419.5127"/><line style="stroke:#181818;stroke-width:1.0;" x1="159" x2="729.4" y1="419.5127" y2="419.5127"/><path d="M0,452.9453 L0,484.1445 L53,484.1445 L53,462.9453 L43,452.9453 L0,452.9453 " fill="#FEFFDD" style="stroke:#181818;stroke-width:0.5;"/><path d="M43,452.9453 L43,462.9453 L53,462.9453 L43,452.9453 " fill="#FEFFDD" style="stroke:#181818;stroke-width:0.5;"/><text fill="#000000" font-family="sans-serif" font-size="9" lengthAdjust="spacing" textLength="31" x="6" y="466.6465">8Y FTE</text><text fill="#000000" font-family="sans-serif" font-size="9" lengthAdjust="spacing" textLength="32" x="6" y="477.2461">2 PhDs</text><rect fill="#E2E2F0" height="12.9551" style="stroke:none;stroke-width:1.0;" width="726" x="2" y="437.9902"/><line style="stroke:#181818;stroke-width:1.0;" x1="2" x2="728" y1="437.9902" y2="437.9902"/><line style="stroke:#181818;stroke-width:1.0;" x1="2" x2="728" y1="450.9453" y2="450.9453"/><line style="stroke:#181818;stroke-width:1.0;" x1="2" x2="2" y1="437.9902" y2="450.9453"/><line style="stroke:#181818;stroke-width:1.0;" x1="728" x2="728" y1="437.9902" y2="450.9453"/><rect fill="#ADD8E6" height="12.9551" style="stroke:none;stroke-width:1.0;" width="288" x="2" y="486.1445"/><line style="stroke:#ADD8E6;stroke-width:1.0;" x1="2" x2="290" y1="486.1445" y2="486.1445"/><line style="stroke:#ADD8E6;stroke-width:1.0;" x1="2" x2="290" y1="499.0996" y2="499.0996"/><line style="stroke:#ADD8E6;stroke-width:1.0;" x1="2" x2="2" y1="486.1445" y2="499.0996"/><line style="stroke:#ADD8E6;stroke-width:1.0;" x1="290" x2="290" y1="486.1445" y2="499.0996"/><polygon fill="#000000" points="109.4,503.0996,114.4,508.0996,109.4,513.0996,104.4,508.0996" style="stroke:#000000;stroke-width:1.0;"/><rect fill="#ADD8E6" height="12.9551" style="stroke:none;stroke-width:1.0;" width="617.2" x="111.2" y="520.0547"/><line style="stroke:#ADD8E6;stroke-width:1.0;" x1="111.2" x2="728.4" y1="520.0547" y2="520.0547"/><line style="stroke:#ADD8E6;stroke-width:1.0;" x1="111.2" x2="728.4" y1="533.0098" y2="533.0098"/><line style="stroke:#ADD8E6;stroke-width:1.0;" x1="111.2" x2="111.2" y1="520.0547" y2="533.0098"/><line style="stroke:#ADD8E6;stroke-width:1.0;" x1="728.4" x2="728.4" y1="520.0547" y2="533.0098"/><polygon fill="#000000" points="218.6,537.0098,223.6,542.0098,218.6,547.0098,213.6,542.0098" style="stroke:#000000;stroke-width:1.0;"/><polygon fill="#000000" points="438.6,553.9648,443.6,558.9648,438.6,563.9648,433.6,558.9648" style="stroke:#000000;stroke-width:1.0;"/><polygon fill="#000000" points="730.2,570.9199,735.2,575.9199,730.2,580.9199,725.2,575.9199" style="stroke:#000000;stroke-width:1.0;"/><rect fill="#90EE90" height="12.9551" style="stroke:none;stroke-width:1.0;" width="434" x="111.2" y="587.875"/><line style="stroke:#90EE90;stroke-width:1.0;" x1="111.2" x2="545.2" y1="587.875" y2="587.875"/><line style="stroke:#90EE90;stroke-width:1.0;" x1="111.2" x2="545.2" y1="600.8301" y2="600.8301"/><line style="stroke:#90EE90;stroke-width:1.0;" x1="111.2" x2="111.2" y1="587.875" y2="600.8301"/><line style="stroke:#90EE90;stroke-width:1.0;" x1="545.2" x2="545.2" y1="587.875" y2="600.8301"/><polygon fill="#000000" points="547,604.8301,552,609.8301,547,614.8301,542,609.8301" style="stroke:#000000;stroke-width:1.0;"/><rect fill="#90EE90" height="12.9551" style="stroke:none;stroke-width:1.0;" width="434" x="257.2" y="621.7852"/><line style="stroke:#90EE90;stroke-width:1.0;" x1="257.2" x2="691.2" y1="621.7852" y2="621.7852"/><line style="stroke:#90EE90;stroke-width:1.0;" x1="257.2" x2="691.2" y1="634.7402" y2="634.7402"/><line style="stroke:#90EE90;stroke-width:1.0;" x1="257.2" x2="257.2" y1="621.7852" y2="634.7402"/><line style="stroke:#90EE90;stroke-width:1.0;" x1="691.2" x2="691.2" y1="621.7852" y2="634.7402"/><polygon fill="#000000" points="693,638.7402,698,643.7402,693,648.7402,688,643.7402" style="stroke:#000000;stroke-width:1.0;"/><text fill="#000000" font-family="sans-serif" font-size="11" lengthAdjust="spacing" textLength="169" x="10" y="51.6348">T3.1 Methodology development</text><text fill="#000000" font-family="sans-serif" font-size="11" lengthAdjust="spacing" textLength="48" x="6" y="76.5898">Lead IRIT</text><text fill="#000000" font-family="sans-serif" font-size="11" lengthAdjust="spacing" textLength="129" x="74.8" y="114.1445">Requirements gathering</text><text fill="#000000" font-family="sans-serif" font-size="11" lengthAdjust="spacing" textLength="123" x="80.6" y="131.0996">D3.1a -- Requirements</text><text fill="#000000" font-family="sans-serif" font-size="11" lengthAdjust="spacing" textLength="86" x="42" y="148.0547">Methodo design</text><text fill="#000000" font-family="sans-serif" font-size="11" lengthAdjust="spacing" textLength="164" x="154.2" y="165.0098">D3.1b -- Draft of Methodology</text><text fill="#000000" font-family="sans-serif" font-size="11" lengthAdjust="spacing" textLength="119" x="299.8" y="181.9648">D3.1c -- Methodology</text><text fill="#000000" font-family="sans-serif" font-size="11" lengthAdjust="spacing" textLength="128" x="10" y="206.9199">T3.2 DevOps and CI/CD</text><text fill="#000000" font-family="sans-serif" font-size="11" lengthAdjust="spacing" textLength="56" x="6" y="231.875">Lead LaBRI</text><text fill="#000000" font-family="sans-serif" font-size="11" lengthAdjust="spacing" textLength="89" x="6" y="280.0293">DevOps strategy</text><text fill="#000000" font-family="sans-serif" font-size="11" lengthAdjust="spacing" textLength="205" x="42" y="296.9844">CI/CD pipeline setup and maintenance</text><text fill="#000000" font-family="sans-serif" font-size="11" lengthAdjust="spacing" textLength="121" x="117.4" y="313.9395">D3.2a -- Repo is ready</text><text fill="#000000" font-family="sans-serif" font-size="11" lengthAdjust="spacing" textLength="128" x="263.4" y="330.8945">D3.2b -- CI/CD pipeline</text><text fill="#000000" font-family="sans-serif" font-size="11" lengthAdjust="spacing" textLength="28" x="115.2" y="347.8496">PhD1</text><text fill="#000000" font-family="sans-serif" font-size="11" lengthAdjust="spacing" textLength="115" x="555" y="364.8047">D3.2c -- PhD thesis 1</text><text fill="#000000" font-family="sans-serif" font-size="11" lengthAdjust="spacing" textLength="28" x="261.2" y="381.7598">PhD2</text><text fill="#000000" font-family="sans-serif" font-size="11" lengthAdjust="spacing" textLength="116" x="701" y="398.7148">D3.2d -- PhD thesis 2</text><text fill="#000000" font-family="sans-serif" font-size="11" lengthAdjust="spacing" textLength="144" x="10" y="423.6699">T3.3 Platform development</text><text fill="#000000" font-family="sans-serif" font-size="11" lengthAdjust="spacing" textLength="50" x="6" y="448.625">Lead CEA</text><text fill="#000000" font-family="sans-serif" font-size="11" lengthAdjust="spacing" textLength="175" x="6" y="496.7793">Platform design and architecture</text><text fill="#000000" font-family="sans-serif" font-size="11" lengthAdjust="spacing" textLength="117" x="117.4" y="513.7344">D3.3a -- POC is ready</text><text fill="#000000" font-family="sans-serif" font-size="11" lengthAdjust="spacing" textLength="225" x="115.2" y="530.6895">Platform implementation and maintenance</text><text fill="#000000" font-family="sans-serif" font-size="11" lengthAdjust="spacing" textLength="111" x="226.6" y="547.6445">D3.3b -- Platform v1</text><text fill="#000000" font-family="sans-serif" font-size="11" lengthAdjust="spacing" textLength="110" x="446.6" y="564.5996">D3.3c -- Platform v2</text><text fill="#000000" font-family="sans-serif" font-size="11" lengthAdjust="spacing" textLength="95" x="738.2" y="581.5547">D3.3d -- Platform</text><text fill="#000000" font-family="sans-serif" font-size="11" lengthAdjust="spacing" textLength="28" x="115.2" y="598.5098">PhD3</text><text fill="#000000" font-family="sans-serif" font-size="11" lengthAdjust="spacing" textLength="115" x="555" y="615.4648">D3.3e -- PhD thesis 3</text><text fill="#000000" font-family="sans-serif" font-size="11" lengthAdjust="spacing" textLength="28" x="261.2" y="632.4199">PhD4</text><text fill="#000000" font-family="sans-serif" font-size="11" lengthAdjust="spacing" textLength="113" x="701" y="649.375">D3.3f -- PhD thesis 4</text><line style="stroke:#C0C0C0;stroke-width:1.0;" x1="0" x2="0" y1="653.6953" y2="667.6953"/><line style="stroke:#C0C0C0;stroke-width:1.0;" x1="36" x2="36" y1="653.6953" y2="667.6953"/><text fill="#000000" font-family="sans-serif" font-size="10" lengthAdjust="spacing" textLength="14" x="11" y="663.3633">Q1</text><line style="stroke:#C0C0C0;stroke-width:1.0;" x1="72.4" x2="72.4" y1="653.6953" y2="667.6953"/><text fill="#000000" font-family="sans-serif" font-size="10" lengthAdjust="spacing" textLength="14" x="47.2" y="663.3633">Q2</text><line style="stroke:#C0C0C0;stroke-width:1.0;" x1="109.2" x2="109.2" y1="653.6953" y2="667.6953"/><text fill="#000000" font-family="sans-serif" font-size="10" lengthAdjust="spacing" textLength="14" x="83.8" y="663.3633">Q3</text><line style="stroke:#C0C0C0;stroke-width:1.0;" x1="146" x2="146" y1="653.6953" y2="667.6953"/><text fill="#000000" font-family="sans-serif" font-size="10" lengthAdjust="spacing" textLength="14" x="120.6" y="663.3633">Q4</text><line style="stroke:#C0C0C0;stroke-width:1.0;" x1="182" x2="182" y1="653.6953" y2="667.6953"/><text fill="#000000" font-family="sans-serif" font-size="10" lengthAdjust="spacing" textLength="14" x="157" y="663.3633">Q1</text><line style="stroke:#C0C0C0;stroke-width:1.0;" x1="218.4" x2="218.4" y1="653.6953" y2="667.6953"/><text fill="#000000" font-family="sans-serif" font-size="10" lengthAdjust="spacing" textLength="14" x="193.2" y="663.3633">Q2</text><line style="stroke:#C0C0C0;stroke-width:1.0;" x1="255.2" x2="255.2" y1="653.6953" y2="667.6953"/><text fill="#000000" font-family="sans-serif" font-size="10" lengthAdjust="spacing" textLength="14" x="229.8" y="663.3633">Q3</text><line style="stroke:#C0C0C0;stroke-width:1.0;" x1="292" x2="292" y1="653.6953" y2="667.6953"/><text fill="#000000" font-family="sans-serif" font-size="10" lengthAdjust="spacing" textLength="14" x="266.6" y="663.3633">Q4</text><line style="stroke:#C0C0C0;stroke-width:1.0;" x1="328.4" x2="328.4" y1="653.6953" y2="667.6953"/><text fill="#000000" font-family="sans-serif" font-size="10" lengthAdjust="spacing" textLength="14" x="303.2" y="663.3633">Q1</text><line style="stroke:#C0C0C0;stroke-width:1.0;" x1="364.8" x2="364.8" y1="653.6953" y2="667.6953"/><text fill="#000000" font-family="sans-serif" font-size="10" lengthAdjust="spacing" textLength="14" x="339.6" y="663.3633">Q2</text><line style="stroke:#C0C0C0;stroke-width:1.0;" x1="401.6" x2="401.6" y1="653.6953" y2="667.6953"/><text fill="#000000" font-family="sans-serif" font-size="10" lengthAdjust="spacing" textLength="14" x="376.2" y="663.3633">Q3</text><line style="stroke:#C0C0C0;stroke-width:1.0;" x1="438.4" x2="438.4" y1="653.6953" y2="667.6953"/><text fill="#000000" font-family="sans-serif" font-size="10" lengthAdjust="spacing" textLength="14" x="413" y="663.3633">Q4</text><line style="stroke:#C0C0C0;stroke-width:1.0;" x1="474.4" x2="474.4" y1="653.6953" y2="667.6953"/><text fill="#000000" font-family="sans-serif" font-size="10" lengthAdjust="spacing" textLength="14" x="449.4" y="663.3633">Q1</text><line style="stroke:#C0C0C0;stroke-width:1.0;" x1="510.8" x2="510.8" y1="653.6953" y2="667.6953"/><text fill="#000000" font-family="sans-serif" font-size="10" lengthAdjust="spacing" textLength="14" x="485.6" y="663.3633">Q2</text><line style="stroke:#C0C0C0;stroke-width:1.0;" x1="547.6" x2="547.6" y1="653.6953" y2="667.6953"/><text fill="#000000" font-family="sans-serif" font-size="10" lengthAdjust="spacing" textLength="14" x="522.2" y="663.3633">Q3</text><line style="stroke:#C0C0C0;stroke-width:1.0;" x1="584.4" x2="584.4" y1="653.6953" y2="667.6953"/><text fill="#000000" font-family="sans-serif" font-size="10" lengthAdjust="spacing" textLength="14" x="559" y="663.3633">Q4</text><line style="stroke:#C0C0C0;stroke-width:1.0;" x1="620.4" x2="620.4" y1="653.6953" y2="667.6953"/><text fill="#000000" font-family="sans-serif" font-size="10" lengthAdjust="spacing" textLength="14" x="595.4" y="663.3633">Q1</text><line style="stroke:#C0C0C0;stroke-width:1.0;" x1="656.8" x2="656.8" y1="653.6953" y2="667.6953"/><text fill="#000000" font-family="sans-serif" font-size="10" lengthAdjust="spacing" textLength="14" x="631.6" y="663.3633">Q2</text><line style="stroke:#C0C0C0;stroke-width:1.0;" x1="693.6" x2="693.6" y1="653.6953" y2="667.6953"/><text fill="#000000" font-family="sans-serif" font-size="10" lengthAdjust="spacing" textLength="14" x="668.2" y="663.3633">Q3</text><text fill="#000000" font-family="sans-serif" font-size="10" lengthAdjust="spacing" textLength="14" x="705" y="663.3633">Q4</text><line style="stroke:#C0C0C0;stroke-width:1.0;" x1="730.4" x2="730.4" y1="653.6953" y2="667.6953"/><line style="stroke:#C0C0C0;stroke-width:1.0;" x1="0" x2="0" y1="667.6953" y2="683.6953"/><line style="stroke:#C0C0C0;stroke-width:1.0;" x1="146" x2="146" y1="667.6953" y2="683.6953"/><text fill="#000000" font-family="sans-serif" font-size="12" font-weight="bold" lengthAdjust="spacing" textLength="32" x="57" y="679.2969">2026</text><line style="stroke:#C0C0C0;stroke-width:1.0;" x1="292" x2="292" y1="667.6953" y2="683.6953"/><text fill="#000000" font-family="sans-serif" font-size="12" font-weight="bold" lengthAdjust="spacing" textLength="32" x="203" y="679.2969">2027</text><line style="stroke:#C0C0C0;stroke-width:1.0;" x1="438.4" x2="438.4" y1="667.6953" y2="683.6953"/><text fill="#000000" font-family="sans-serif" font-size="12" font-weight="bold" lengthAdjust="spacing" textLength="32" x="349.2" y="679.2969">2028</text><line style="stroke:#C0C0C0;stroke-width:1.0;" x1="584.4" x2="584.4" y1="667.6953" y2="683.6953"/><text fill="#000000" font-family="sans-serif" font-size="12" font-weight="bold" lengthAdjust="spacing" textLength="32" x="495.4" y="679.2969">2029</text><text fill="#000000" font-family="sans-serif" font-size="12" font-weight="bold" lengthAdjust="spacing" textLength="32" x="641.4" y="679.2969">2030</text><line style="stroke:#C0C0C0;stroke-width:1.0;" x1="730.4" x2="730.4" y1="667.6953" y2="683.6953"/><line style="stroke:#C0C0C0;stroke-width:1.0;" x1="0" x2="730.4" y1="653.6953" y2="653.6953"/><line style="stroke:#C0C0C0;stroke-width:1.0;" x1="0" x2="730.4" y1="667.6953" y2="667.6953"/><line style="stroke:#C0C0C0;stroke-width:1.0;" x1="0" x2="730.4" y1="683.6953" y2="683.6953"/><rect fill="#DDDDDD" height="96.4414" id="_legend" rx="7.5" ry="7.5" style="stroke:#000000;stroke-width:1.0;" width="172" x="278.7" y="696.6953"/><text fill="#000000" font-family="sans-serif" font-size="14" lengthAdjust="spacing" textLength="54" x="283.7" y="715.2305">Legend:</text><text fill="#000000" font-family="sans-serif" font-size="14" font-weight="bold" lengthAdjust="spacing" textLength="39" x="288.7" y="733.7188">Color</text><text fill="#000000" font-family="sans-serif" font-size="14" font-weight="bold" lengthAdjust="spacing" textLength="75" x="337.7" y="733.7188">Task Type</text><rect fill="#D3D3D3" height="16.4883" style="stroke:none;stroke-width:1.0;" width="49" x="283.7" y="736.6719"/><text fill="#000000" font-family="sans-serif" font-size="14" lengthAdjust="spacing" textLength="4" x="283.7" y="750.207">&#160;</text><text fill="#000000" font-family="sans-serif" font-size="14" lengthAdjust="spacing" textLength="67" x="336.7" y="750.207">WP leader</text><rect fill="#ADD8E6" height="16.4883" style="stroke:none;stroke-width:1.0;" width="49" x="283.7" y="753.1602"/><text fill="#000000" font-family="sans-serif" font-size="14" lengthAdjust="spacing" textLength="4" x="283.7" y="766.6953">&#160;</text><text fill="#000000" font-family="sans-serif" font-size="14" lengthAdjust="spacing" textLength="105" x="336.7" y="766.6953">FTE &amp; PostDocs</text><rect fill="#90EE90" height="16.4883" style="stroke:none;stroke-width:1.0;" width="49" x="283.7" y="769.6484"/><text fill="#000000" font-family="sans-serif" font-size="14" lengthAdjust="spacing" textLength="4" x="283.7" y="783.1836">&#160;</text><text fill="#000000" font-family="sans-serif" font-size="14" lengthAdjust="spacing" textLength="34" x="336.7" y="783.1836">PhDs</text><line style="stroke:#000000;stroke-width:1.0;" x1="283.7" x2="445.7" y1="720.1836" y2="720.1836"/><line style="stroke:#000000;stroke-width:1.0;" x1="283.7" x2="445.7" y1="736.6719" y2="736.6719"/><line style="stroke:#000000;stroke-width:1.0;" x1="283.7" x2="445.7" y1="753.1602" y2="753.1602"/><line style="stroke:#000000;stroke-width:1.0;" x1="283.7" x2="445.7" y1="769.6484" y2="769.6484"/><line style="stroke:#000000;stroke-width:1.0;" x1="283.7" x2="445.7" y1="786.1367" y2="786.1367"/><line style="stroke:#000000;stroke-width:1.0;" x1="283.7" x2="283.7" y1="720.1836" y2="786.1367"/><line style="stroke:#000000;stroke-width:1.0;" x1="332.7" x2="332.7" y1="720.1836" y2="786.1367"/><line style="stroke:#000000;stroke-width:1.0;" x1="445.7" x2="445.7" y1="720.1836" y2="786.1367"/><!--SRC=[xLPjRzis4FxENt70WAL5uSmIxRmOMz76Je9a3c9uReV2o0TAecLjCgcIb041_l4xKd8ast3Y1HYmOVwIC2BlxhcxvxdS9ssOCZ4Jni2eJs_jeJ_7JuHaAX56Xopby3t7Brob1Haf-GSF3JWp3MREmTC6v0pkcS1N1VXj_uoSmFeX5r7vZ5Rl1ZpaYu0h-_2Ij5emeQSUF70pbv5CPLn0n9SybTc22mEjblKbjHd847nWGfFfaBC8xiPtaoTG_7kUAAx1k_2x4B524o4DXq0Q8nS4mF-sjYQ81Emb8TDnQMOZQ8WPmiDSuoTW6gOM3jlqx1nZx0WI3I62L1oF0eP9F3TNQSx9T62j42qqNJ_1d6KP5sXhrevFj2q9OgWoncnr4eiwTj28VTPf7n2xigfQOily6NkNbfrmo0ABRA3Op7MWMUiQehLhzF2yj0ojPSDWDwNWEQMobpvsUFcObPZxTp_r1sKJlTCkt4okuSFwL3LooAx6TuTqiaM_EJCymcW-q8s68jOofZQA6MvXLkNqcwsaPzt3occj6kNSeFQqp2bBCfucWeFc9i-SnmL3mN31HCZh-DYO5oFjRrnrwmJanDDG3cqJrn-_ubmcRHI5zImsE_eO6bc9hUI2xxYmcSDUatECWgNswdJ2PgVQbo_NyrPnBiZQhf7cBYh7CmnbHuL6LzuEqT35itRmeLzZYjw8ATg7gUI-7srXydSnHLlafp1AcPb9jTYTOhvbVmSApjHwYFMlFn_0_8kzl9ysejafuf9cAfmd1cTlhceUqgOEpkc1OuM-f8E1lNSbUkmVmhu6scIHfMv4CfD8iLSyz1NnqE05LbNt- -JZu3ijFADQUblJC4yRev26cu_zlQFpidmVDT_lK8S66tIcTT9lb1XzHMAKRz6PxcBQb5YdnlH6YT5N94PdMvWwkvXgYPt0aCVsb9Q_ohzwPFKBz2q4mCE4wJzXKcGSLcJrym-fnHChLdo45Vm-WXGvYW3StJENFgxSFwOVrvk2RjoxNAonLHv-jzghmfDF-DDjJdZyPzQe0xQZupRq7zo6ZflFSVFvtsm-nrNdkEeSLvs_j-hy-pOSxAumNnw6iEHAMoPxfvXRvvI-cynpkE41U5tCjjTfzzfTLFl4fjvvJzxTZePB7xJCLSWXIl3_L1BaLWlloJrRCXZdmYGBteD7hCNzuDVr1xWMoqH9ORL3xhy-r0_EEgshnC1lN24M-Ff01dp6yjIWHIWZN5rwy6LoqxeWGoRYdCNe6vlKb-XN5Jsu6Vy5]--></g></svg>